#!OML:ASF F:\VICON\USERDATA\INSTALL\rory3\rory3.ASF
:FULLY-SPECIFIED
:DEGREES
143
root 4.67828 18.9293 2.69125 -8.83348 -2.84967 -7.70472
lowerback 16.2157 2.86543 -4.24525
upperback 6.31772 3.03511 -1.96568
thorax -2.45664 1.47068 -0.218266
lowerneck -2.9025 2.11732 -6.28912
upperneck 29.3425 3.08708 3.02663
head 9.56926 1.06113 2.41536
rclavicle 2.14687e-014 0
rhumerus 12.0711 9.92796 -65.6636
rradius 110.261
rwrist 23.7691
rhand -36.7944 -6.9671
rfingers 7.12502
rthumb -9.87629 -36.7154
lclavicle 2.14687e-014 0
lhumerus 4.71014 0.11742 72.6482
lradius 78.9068
lwrist 11.7846
lhand -18.5419 34.9478
lfingers 7.12502
lthumb 7.74731 64.7859
rfemur -41.6505 7.66275 -7.42819
rtibia 28.8639
rfoot 4.71741 -16.3196
rtoes -6.31516
lfemur -6.75125 -3.97443 -11.9485
ltibia 24.7914
lfoot -7.55089 16.0792
ltoes -1.89181
144
root 4.68142 18.936 2.6927 -8.90646 -2.6388 -7.64398
lowerback 16.1317 2.74593 -4.33283
upperback 6.52304 2.87912 -1.97411
thorax -2.19348 1.38736 -0.139739
lowerneck -2.232 2.11441 -6.3083
upperneck 29.4595 3.05247 2.95943
head 9.49015 1.03035 2.38212
rclavicle 2.78299e-015 -2.06736e-014
rhumerus 12.8639 7.986 -65.8273
rradius 112.526
rwrist 22.8261
rhand -34.2669 -6.23559
rfingers 7.12502
rthumb -7.43723 -36.0849
lclavicle 2.78299e-015 -2.06736e-014
lhumerus 5.29129 1.6281 72.8368
lradius 79.1878
lwrist 11.8351
lhand -18.3773 34.9979
lfingers 7.12502
lthumb 7.90622 64.8301
rfemur -41.974 7.67709 -7.7708
rtibia 28.8
rfoot 5.09202 -16.613
rtoes -6.31967
lfemur -6.63367 -3.93885 -12.0602
ltibia 24.6157
lfoot -7.40225 15.9064
ltoes -1.95916
145
root 4.68199 18.9417 2.69377 -8.98254 -2.44368 -7.56772
lowerback 16.1517 2.69206 -4.41681
upperback 6.64594 2.79839 -2.02502
thorax -2.0719 1.34407 -0.129064
lowerneck -1.36869 2.00491 -6.12385
upperneck 29.4797 2.85991 2.78037
head 9.35413 0.938982 2.25757
rclavicle -2.18663e-014 -1.27222e-014
rhumerus 13.2603 6.18211 -66.0425
rradius 114.207
rwrist 23.6512
rhand -35.3731 -6.69661
rfingers 7.12502
rthumb -8.50483 -36.5053
lclavicle -2.18663e-014 -1.27222e-014
lhumerus 5.83971 2.91584 73.0896
lradius 79.5348
lwrist 12.088
lhand -18.1086 34.9376
lfingers 7.12502
lthumb 8.16549 64.7598
rfemur -42.2859 7.72403 -8.1221
rtibia 28.6673
rfoot 5.59888 -16.9077
rtoes -6.04249
lfemur -6.53025 -3.97603 -12.1862
ltibia 24.4988
lfoot -7.37183 15.8514
ltoes -1.68785
146
root 4.68017 18.9425 2.69419 -9.07496 -2.21302 -7.58483
lowerback 16.2352 2.63406 -4.36076
upperback 6.74167 2.72794 -2.08297
thorax -2.00697 1.30915 -0.209552
lowerneck -0.578125 1.84777 -6.06773
upperneck 29.5857 2.5551 2.86794
head 9.26019 0.806328 2.24465
rclavicle -2.10712e-014 -3.02153e-014
rhumerus 13.417 4.47111 -66.2705
rradius 115.705
rwrist 24.3509
rhand -36.7394 -7.31633
rfingers 7.12502
rthumb -9.82322 -37.0672
lclavicle -2.10712e-014 -3.02153e-014
lhumerus 6.38573 4.07677 73.3495
lradius 79.8927
lwrist 12.4808
lhand -17.5267 34.7036
lfingers 7.12502
lthumb 8.7271 64.5032
rfemur -42.5318 7.87434 -8.42868
rtibia 28.493
rfoot 5.99988 -17.3987
rtoes -5.29078
lfemur -6.43554 -4.06101 -12.2054
ltibia 24.393
lfoot -7.35524 15.7812
ltoes -1.12128
147
root 4.67679 18.9421 2.69464 -9.0991 -1.91893 -7.58481
lowerback 16.2766 2.50618 -4.40117
upperback 6.95886 2.56171 -2.07478
thorax -1.79522 1.22115 -0.14466
lowerneck -0.35208 1.78959 -6.39163
upperneck 29.748 2.41544 3.14985
head 9.27497 0.728607 2.38855
rclavicle -3.57812e-015 5.24792e-014
rhumerus 13.8452 3.03935 -66.4163
rradius 117.039
rwrist 24.4394
rhand -37.5847 -7.3693
rfingers 7.12502
rthumb -10.6387 -37.08
lclavicle -3.57812e-015 5.24792e-014
lhumerus 7.01327 5.36883 73.6912
lradius 80.2099
lwrist 12.497
lhand -17.5684 34.3444
lfingers 7.12502
lthumb 8.68687 64.1457
rfemur -42.7997 7.97517 -8.77438
rtibia 28.3207
rfoot 6.2764 -17.8647
rtoes -4.95701
lfemur -6.43895 -4.13361 -12.2393
ltibia 24.2658
lfoot -7.20004 15.6487
ltoes -1.20618
148
root 4.67522 18.9473 2.69704 -9.1536 -1.56139 -7.51351
lowerback 16.3371 2.40969 -4.44396
upperback 7.1212 2.43076 -2.14591
thorax -1.64875 1.15316 -0.170546
lowerneck 0.0939777 1.68714 -6.41076
upperneck 29.8424 2.21392 3.25436
head 9.2357 0.63809 2.4091
rclavicle -3.57812e-015 -2.22639e-014
rhumerus 13.9278 1.72806 -66.6069
rradius 118.254
rwrist 24.4031
rhand -38.6424 -7.38741
rfingers 7.12502
rthumb -11.6588 -37.043
lclavicle -3.57812e-015 -2.22639e-014
lhumerus 7.47673 6.27215 73.9911
lradius 80.5042
lwrist 12.3731
lhand -18.397 34.0573
lfingers 7.12502
lthumb 7.88716 63.8902
rfemur -42.9411 8.01439 -9.18248
rtibia 28.1231
rfoot 6.43524 -18.2844
rtoes -4.80124
lfemur -6.4026 -4.23691 -12.3659
ltibia 24.1441
lfoot -7.11802 15.4822
ltoes -0.85048
149
root 4.67156 18.9491 2.70031 -9.24109 -1.15585 -7.33735
lowerback 16.4694 2.32763 -4.59284
upperback 7.27844 2.29801 -2.2248
thorax -1.54803 1.08293 -0.147863
lowerneck 0.598855 1.5217 -6.4542
upperneck 29.8994 1.93829 3.29595
head 9.17838 0.504797 2.40602
rclavicle -3.89618e-014 3.18055e-015
rhumerus 13.8129 0.676977 -66.7283
rradius 119.212
rwrist 24.6821
rhand -39.9053 -7.61325
rfingers 7.12502
rthumb -12.8765 -37.196
lclavicle -3.89618e-014 3.18055e-015
lhumerus 7.89701 7.07172 74.3159
lradius 80.9203
lwrist 12.1373
lhand -18.9082 34.2645
lfingers 7.12502
lthumb 7.39371 64.1153
rfemur -43.0052 8.07463 -9.71381
rtibia 27.9225
rfoot 6.42491 -18.8303
rtoes -4.12787
lfemur -6.33095 -4.3449 -12.6085
ltibia 24.006
lfoot -7.0594 15.2884
ltoes -0.445888
150
root 4.6665 18.9486 2.70095 -9.27539 -0.82801 -7.37255
lowerback 16.5903 2.2669 -4.45222
upperback 7.42907 2.23765 -2.27996
thorax -1.44266 1.05423 -0.275029
lowerneck 1.0677 1.28509 -6.58931
upperneck 29.9335 1.52559 3.52743
head 9.12319 0.316429 2.47703
rclavicle 1.03368e-014 -4.77083e-015
rhumerus 13.4853 -0.239474 -66.8442
rradius 119.966
rwrist 25.0118
rhand -41.0435 -8.12159
rfingers 7.12502
rthumb -13.9735 -37.632
lclavicle 1.03368e-014 -4.77083e-015
lhumerus 8.37015 7.70185 74.6337
lradius 81.3483
lwrist 11.7421
lhand -18.9129 34.6391
lfingers 7.12502
lthumb 7.38921 64.4901
rfemur -43.1166 8.23613 -10.0273
rtibia 27.6967
rfoot 6.23807 -19.4985
rtoes -3.29051
lfemur -6.323 -4.44619 -12.594
ltibia 23.8703
lfoot -6.98338 15.1157
ltoes -0.0933789
151
root 4.66141 18.9484 2.70407 -9.29021 -0.532641 -7.44093
lowerback 16.5817 2.19283 -4.30263
upperback 7.6649 2.17466 -2.30552
thorax -1.18004 1.02152 -0.369479
lowerneck 1.22804 1.09445 -6.76632
upperneck 29.9916 1.20376 3.75329
head 9.12917 0.166197 2.56469
rclavicle 9.14409e-015 1.27222e-014
rhumerus 13.2131 -0.875523 -66.9484
rradius 120.593
rwrist 25.3002
rhand -41.8719 -8.59769
rfingers 7.12502
rthumb -14.7717 -38.0513
lclavicle 9.14409e-015 1.27222e-014
lhumerus 8.82926 8.32322 74.909
lradius 81.7346
lwrist 11.5582
lhand -19.1719 34.5528
lfingers 7.12502
lthumb 7.13918 64.4124
rfemur -43.2079 8.42276 -10.2941
rtibia 27.3955
rfoot 5.91765 -20.271
rtoes -2.85157
lfemur -6.36598 -4.5345 -12.5549
ltibia 23.8254
lfoot -6.84015 14.9732
ltoes -0.471638
152
root 4.65481 18.9457 2.70783 -9.32174 -0.192031 -7.39157
lowerback 16.6523 2.09157 -4.33559
upperback 7.89676 2.04373 -2.32832
thorax -0.966517 0.951519 -0.350093
lowerneck 1.31841 1.0085 -6.96311
upperneck 29.9867 1.04513 3.93383
head 9.11714 0.0870107 2.65041
rclavicle -7.95139e-015 3.49861e-014
rhumerus 12.8735 -1.16298 -67.0452
rradius 121.081
rwrist 25.5098
rhand -42.1849 -8.87134
rfingers 7.12502
rthumb -15.0733 -38.3026
lclavicle -7.95139e-015 3.49861e-014
lhumerus 9.11631 8.97799 75.1272
lradius 82.1562
lwrist 11.5733
lhand -19.5832 34.075
lfingers 7.12502
lthumb 6.74216 63.9477
rfemur -43.2132 8.5754 -10.6717
rtibia 27.0118
rfoot 5.5873 -21.0676
rtoes -2.70015
lfemur -6.45047 -4.65375 -12.6476
ltibia 23.901
lfoot -6.88543 14.8529
ltoes -0.565872
153
root 4.64646 18.9404 2.70921 -9.31705 0.0460574 -7.47183
lowerback 16.8436 1.99434 -4.26692
upperback 8.04042 1.92252 -2.28127
thorax -0.909981 0.890183 -0.321593
lowerneck 1.36149 0.92222 -7.18911
upperneck 30.0524 0.905455 4.05939
head 9.13999 0.00722332 2.72553
rclavicle -3.10104e-014 -1.74931e-014
rhumerus 12.313 -1.16625 -67.1443
rradius 121.353
rwrist 25.6281
rhand -42.3281 -8.63263
rfingers 7.12502
rthumb -15.2112 -38.0534
lclavicle -3.10104e-014 -1.74931e-014
lhumerus 9.21599 9.635 75.3815
lradius 82.6582
lwrist 11.5429
lhand -19.8218 33.7955
lfingers 7.12502
lthumb 6.51188 63.6754
rfemur -43.2928 8.81484 -10.891
rtibia 26.6136
rfoot 5.13843 -21.9105
rtoes -2.75743
lfemur -6.58744 -4.68803 -12.5531
ltibia 24.0041
lfoot -6.95827 14.6792
ltoes -0.312961
